<svg height="44"
     width="44"
     xmlns="http://www.w3.org/2000/svg"
     version="1.1">
<g transform="translate(0, 36)" fill="white">
  <g>
  <rect height="1" width="1" x="1" y="0"/>
  <rect height="1" width="1" x="3" y="0"/>
  <rect height="1" width="1" x="5" y="0"/>
  <rect height="1" width="1" x="7" y="0"/>
  <rect height="1" width="1" x="9" y="0"/>
  <rect height="1" width="1" x="11" y="0"/>
  <rect height="1" width="1" x="13" y="0"/>
  <rect height="1" width="1" x="15" y="0"/>
  <rect height="1" width="1" x="17" y="0"/>
  <rect height="1" width="1" x="19" y="0"/>
  <rect height="1" width="1" x="21" y="0"/>
  <rect height="1" width="1" x="23" y="0"/>
  <rect height="1" width="1" x="25" y="0"/>
  <rect height="1" width="1" x="27" y="0"/>
  <rect height="1" width="1" x="29" y="0"/>
  <rect height="1" width="1" x="31" y="0"/>
  <rect height="1" width="1" x="33" y="0"/>
  <rect height="1" width="1" x="35" y="0"/>
  <rect height="1" width="1" x="37" y="0"/>
  <rect height="1" width="1" x="39" y="0"/>
  <rect height="1" width="1" x="41" y="0"/>
  <rect height="1" width="1" x="43" y="0"/>
  </g>
  <g transform="translate(-1, 1)">
  <rect height="1" width="1" x="1" y="0"/>
  <rect height="1" width="1" x="3" y="0"/>
  <rect height="1" width="1" x="5" y="0"/>
  <rect height="1" width="1" x="7" y="0"/>
  <rect height="1" width="1" x="9" y="0"/>
  <rect height="1" width="1" x="11" y="0"/>
  <rect height="1" width="1" x="13" y="0"/>
  <rect height="1" width="1" x="15" y="0"/>
  <rect height="1" width="1" x="17" y="0"/>
  <rect height="1" width="1" x="19" y="0"/>
  <rect height="1" width="1" x="21" y="0"/>
  <rect height="1" width="1" x="23" y="0"/>
  <rect height="1" width="1" x="25" y="0"/>
  <rect height="1" width="1" x="27" y="0"/>
  <rect height="1" width="1" x="29" y="0"/>
  <rect height="1" width="1" x="31" y="0"/>
  <rect height="1" width="1" x="33" y="0"/>
  <rect height="1" width="1" x="35" y="0"/>
  <rect height="1" width="1" x="37" y="0"/>
  <rect height="1" width="1" x="39" y="0"/>
  <rect height="1" width="1" x="41" y="0"/>
  <rect height="1" width="1" x="43" y="0"/>
  </g>
  <g transform="translate(0, 2)">
  <rect height="1" width="1" x="1" y="0"/>
  <rect height="1" width="1" x="3" y="0"/>
  <rect height="1" width="1" x="5" y="0"/>
  <rect height="1" width="1" x="7" y="0"/>
  <rect height="1" width="1" x="9" y="0"/>
  <rect height="1" width="1" x="11" y="0"/>
  <rect height="1" width="1" x="13" y="0"/>
  <rect height="1" width="1" x="15" y="0"/>
  <rect height="1" width="1" x="17" y="0"/>
  <rect height="1" width="1" x="19" y="0"/>
  <rect height="1" width="1" x="21" y="0"/>
  <rect height="1" width="1" x="23" y="0"/>
  <rect height="1" width="1" x="25" y="0"/>
  <rect height="1" width="1" x="27" y="0"/>
  <rect height="1" width="1" x="29" y="0"/>
  <rect height="1" width="1" x="31" y="0"/>
  <rect height="1" width="1" x="33" y="0"/>
  <rect height="1" width="1" x="35" y="0"/>
  <rect height="1" width="1" x="37" y="0"/>
  <rect height="1" width="1" x="39" y="0"/>
  <rect height="1" width="1" x="41" y="0"/>
  <rect height="1" width="1" x="43" y="0"/>
  </g>
  <g transform="translate(-1, 3)">
  <rect height="1" width="1" x="1" y="0"/>
  <rect height="1" width="1" x="3" y="0"/>
  <rect height="1" width="1" x="5" y="0"/>
  <rect height="1" width="1" x="7" y="0"/>
  <rect height="1" width="1" x="9" y="0"/>
  <rect height="1" width="1" x="11" y="0"/>
  <rect height="1" width="1" x="13" y="0"/>
  <rect height="1" width="1" x="15" y="0"/>
  <rect height="1" width="1" x="17" y="0"/>
  <rect height="1" width="1" x="19" y="0"/>
  <rect height="1" width="1" x="21" y="0"/>
  <rect height="1" width="1" x="23" y="0"/>
  <rect height="1" width="1" x="25" y="0"/>
  <rect height="1" width="1" x="27" y="0"/>
  <rect height="1" width="1" x="29" y="0"/>
  <rect height="1" width="1" x="31" y="0"/>
  <rect height="1" width="1" x="33" y="0"/>
  <rect height="1" width="1" x="35" y="0"/>
  <rect height="1" width="1" x="37" y="0"/>
  <rect height="1" width="1" x="39" y="0"/>
  <rect height="1" width="1" x="41" y="0"/>
  <rect height="1" width="1" x="43" y="0"/>
  </g>
  <g transform="translate(0, 4)">
  <rect height="1" width="1" x="1" y="0"/>
  <rect height="1" width="1" x="3" y="0"/>
  <rect height="1" width="1" x="5" y="0"/>
  <rect height="1" width="1" x="7" y="0"/>
  <rect height="1" width="1" x="9" y="0"/>
  <rect height="1" width="1" x="11" y="0"/>
  <rect height="1" width="1" x="13" y="0"/>
  <rect height="1" width="1" x="15" y="0"/>
  <rect height="1" width="1" x="17" y="0"/>
  <rect height="1" width="1" x="19" y="0"/>
  <rect height="1" width="1" x="21" y="0"/>
  <rect height="1" width="1" x="23" y="0"/>
  <rect height="1" width="1" x="25" y="0"/>
  <rect height="1" width="1" x="27" y="0"/>
  <rect height="1" width="1" x="29" y="0"/>
  <rect height="1" width="1" x="31" y="0"/>
  <rect height="1" width="1" x="33" y="0"/>
  <rect height="1" width="1" x="35" y="0"/>
  <rect height="1" width="1" x="37" y="0"/>
  <rect height="1" width="1" x="39" y="0"/>
  <rect height="1" width="1" x="41" y="0"/>
  <rect height="1" width="1" x="43" y="0"/>
  </g>
  <g transform="translate(-1, 5)">
  <rect height="1" width="1" x="1" y="0"/>
  <rect height="1" width="1" x="3" y="0"/>
  <rect height="1" width="1" x="5" y="0"/>
  <rect height="1" width="1" x="7" y="0"/>
  <rect height="1" width="1" x="9" y="0"/>
  <rect height="1" width="1" x="11" y="0"/>
  <rect height="1" width="1" x="13" y="0"/>
  <rect height="1" width="1" x="15" y="0"/>
  <rect height="1" width="1" x="17" y="0"/>
  <rect height="1" width="1" x="19" y="0"/>
  <rect height="1" width="1" x="21" y="0"/>
  <rect height="1" width="1" x="23" y="0"/>
  <rect height="1" width="1" x="25" y="0"/>
  <rect height="1" width="1" x="27" y="0"/>
  <rect height="1" width="1" x="29" y="0"/>
  <rect height="1" width="1" x="31" y="0"/>
  <rect height="1" width="1" x="33" y="0"/>
  <rect height="1" width="1" x="35" y="0"/>
  <rect height="1" width="1" x="37" y="0"/>
  <rect height="1" width="1" x="39" y="0"/>
  <rect height="1" width="1" x="41" y="0"/>
  <rect height="1" width="1" x="43" y="0"/>
  </g>
  <g transform="translate(0, 6)">
  <rect height="1" width="1" x="1" y="0"/>
  <rect height="1" width="1" x="3" y="0"/>
  <rect height="1" width="1" x="5" y="0"/>
  <rect height="1" width="1" x="7" y="0"/>
  <rect height="1" width="1" x="9" y="0"/>
  <rect height="1" width="1" x="11" y="0"/>
  <rect height="1" width="1" x="13" y="0"/>
  <rect height="1" width="1" x="15" y="0"/>
  <rect height="1" width="1" x="17" y="0"/>
  <rect height="1" width="1" x="19" y="0"/>
  <rect height="1" width="1" x="21" y="0"/>
  <rect height="1" width="1" x="23" y="0"/>
  <rect height="1" width="1" x="25" y="0"/>
  <rect height="1" width="1" x="27" y="0"/>
  <rect height="1" width="1" x="29" y="0"/>
  <rect height="1" width="1" x="31" y="0"/>
  <rect height="1" width="1" x="33" y="0"/>
  <rect height="1" width="1" x="35" y="0"/>
  <rect height="1" width="1" x="37" y="0"/>
  <rect height="1" width="1" x="39" y="0"/>
  <rect height="1" width="1" x="41" y="0"/>
  <rect height="1" width="1" x="43" y="0"/>
  </g>
  <g transform="translate(-1, 7)">
  <rect height="1" width="1" x="1" y="0"/>
  <rect height="1" width="1" x="3" y="0"/>
  <rect height="1" width="1" x="5" y="0"/>
  <rect height="1" width="1" x="7" y="0"/>
  <rect height="1" width="1" x="9" y="0"/>
  <rect height="1" width="1" x="11" y="0"/>
  <rect height="1" width="1" x="13" y="0"/>
  <rect height="1" width="1" x="15" y="0"/>
  <rect height="1" width="1" x="17" y="0"/>
  <rect height="1" width="1" x="19" y="0"/>
  <rect height="1" width="1" x="21" y="0"/>
  <rect height="1" width="1" x="23" y="0"/>
  <rect height="1" width="1" x="25" y="0"/>
  <rect height="1" width="1" x="27" y="0"/>
  <rect height="1" width="1" x="29" y="0"/>
  <rect height="1" width="1" x="31" y="0"/>
  <rect height="1" width="1" x="33" y="0"/>
  <rect height="1" width="1" x="35" y="0"/>
  <rect height="1" width="1" x="37" y="0"/>
  <rect height="1" width="1" x="39" y="0"/>
  <rect height="1" width="1" x="41" y="0"/>
  <rect height="1" width="1" x="43" y="0"/>
  </g>
  <g transform="translate(0, 8)">
  <rect height="1" width="1" x="1" y="0"/>
  <rect height="1" width="1" x="3" y="0"/>
  <rect height="1" width="1" x="5" y="0"/>
  <rect height="1" width="1" x="7" y="0"/>
  <rect height="1" width="1" x="9" y="0"/>
  <rect height="1" width="1" x="11" y="0"/>
  <rect height="1" width="1" x="13" y="0"/>
  <rect height="1" width="1" x="15" y="0"/>
  <rect height="1" width="1" x="17" y="0"/>
  <rect height="1" width="1" x="19" y="0"/>
  <rect height="1" width="1" x="21" y="0"/>
  <rect height="1" width="1" x="23" y="0"/>
  <rect height="1" width="1" x="25" y="0"/>
  <rect height="1" width="1" x="27" y="0"/>
  <rect height="1" width="1" x="29" y="0"/>
  <rect height="1" width="1" x="31" y="0"/>
  <rect height="1" width="1" x="33" y="0"/>
  <rect height="1" width="1" x="35" y="0"/>
  <rect height="1" width="1" x="37" y="0"/>
  <rect height="1" width="1" x="39" y="0"/>
  <rect height="1" width="1" x="41" y="0"/>
  <rect height="1" width="1" x="43" y="0"/>
  </g>
  <g transform="translate(-1, 9)">
  <rect height="1" width="1" x="1" y="0"/>
  <rect height="1" width="1" x="3" y="0"/>
  <rect height="1" width="1" x="5" y="0"/>
  <rect height="1" width="1" x="7" y="0"/>
  <rect height="1" width="1" x="9" y="0"/>
  <rect height="1" width="1" x="11" y="0"/>
  <rect height="1" width="1" x="13" y="0"/>
  <rect height="1" width="1" x="15" y="0"/>
  <rect height="1" width="1" x="17" y="0"/>
  <rect height="1" width="1" x="19" y="0"/>
  <rect height="1" width="1" x="21" y="0"/>
  <rect height="1" width="1" x="23" y="0"/>
  <rect height="1" width="1" x="25" y="0"/>
  <rect height="1" width="1" x="27" y="0"/>
  <rect height="1" width="1" x="29" y="0"/>
  <rect height="1" width="1" x="31" y="0"/>
  <rect height="1" width="1" x="33" y="0"/>
  <rect height="1" width="1" x="35" y="0"/>
  <rect height="1" width="1" x="37" y="0"/>
  <rect height="1" width="1" x="39" y="0"/>
  <rect height="1" width="1" x="41" y="0"/>
  <rect height="1" width="1" x="43" y="0"/>
  </g>
  <g transform="translate(0, 10)">
  <rect height="1" width="1" x="1" y="0"/>
  <rect height="1" width="1" x="3" y="0"/>
  <rect height="1" width="1" x="5" y="0"/>
  <rect height="1" width="1" x="7" y="0"/>
  <rect height="1" width="1" x="9" y="0"/>
  <rect height="1" width="1" x="11" y="0"/>
  <rect height="1" width="1" x="13" y="0"/>
  <rect height="1" width="1" x="15" y="0"/>
  <rect height="1" width="1" x="17" y="0"/>
  <rect height="1" width="1" x="19" y="0"/>
  <rect height="1" width="1" x="21" y="0"/>
  <rect height="1" width="1" x="23" y="0"/>
  <rect height="1" width="1" x="25" y="0"/>
  <rect height="1" width="1" x="27" y="0"/>
  <rect height="1" width="1" x="29" y="0"/>
  <rect height="1" width="1" x="31" y="0"/>
  <rect height="1" width="1" x="33" y="0"/>
  <rect height="1" width="1" x="35" y="0"/>
  <rect height="1" width="1" x="37" y="0"/>
  <rect height="1" width="1" x="39" y="0"/>
  <rect height="1" width="1" x="41" y="0"/>
  <rect height="1" width="1" x="43" y="0"/>
  </g>
  <g transform="translate(-1, 11)">
  <rect height="1" width="1" x="1" y="0"/>
  <rect height="1" width="1" x="3" y="0"/>
  <rect height="1" width="1" x="5" y="0"/>
  <rect height="1" width="1" x="7" y="0"/>
  <rect height="1" width="1" x="9" y="0"/>
  <rect height="1" width="1" x="11" y="0"/>
  <rect height="1" width="1" x="13" y="0"/>
  <rect height="1" width="1" x="15" y="0"/>
  <rect height="1" width="1" x="17" y="0"/>
  <rect height="1" width="1" x="19" y="0"/>
  <rect height="1" width="1" x="21" y="0"/>
  <rect height="1" width="1" x="23" y="0"/>
  <rect height="1" width="1" x="25" y="0"/>
  <rect height="1" width="1" x="27" y="0"/>
  <rect height="1" width="1" x="29" y="0"/>
  <rect height="1" width="1" x="31" y="0"/>
  <rect height="1" width="1" x="33" y="0"/>
  <rect height="1" width="1" x="35" y="0"/>
  <rect height="1" width="1" x="37" y="0"/>
  <rect height="1" width="1" x="39" y="0"/>
  <rect height="1" width="1" x="41" y="0"/>
  <rect height="1" width="1" x="43" y="0"/>
  </g>
</g>
</svg>
